<svg width="20" height="20" viewBox="0 0 20 20" xmlns="http://www.w3.org/2000/svg">
    <g fill="none" fill-rule="evenodd">
        <rect fill="#039BE5" width="20" height="20" rx="1.456"/>
        <path d="M13.955 7.493c-3.331 0-3.335 3.74-3.335 3.76 0 0-.228 3.744 3.335 3.744 0 0 2.97.191 2.97-2.606H15.4s.05 1.054-1.395 1.054c0 0-1.525.114-1.525-1.702h4.496s.495-4.25-3.021-4.25zm-1.493 2.94s.186-1.506 1.526-1.506c1.345 0 1.322 1.506 1.322 1.506h-2.848zM8.651 9.47s1.323-.109 1.323-1.863C9.974 5.857 8.892 5 7.518 5H3v9.792h4.518s2.76.097 2.76-2.892c0 0 .118-2.43-1.627-2.43zM4.99 6.74h2.527s.613 0 .613 1.019c0 1.02-.36 1.168-.77 1.168h-2.37V6.739zm2.4 6.313h-2.4v-2.62h2.527s.917-.01.913 1.348c0 1.144-.68 1.263-1.04 1.272zm4.695-7.476v1.205h3.584V5.577h-3.584z" fill="#F1F2F2"/>
    </g>
</svg>
