<svg width="20" height="20" viewBox="0 0 20 20" xmlns="http://www.w3.org/2000/svg">
    <g fill-rule="nonzero" fill="none">
        <path d="M2.222 20h15.556A2.222 2.222 0 0 0 20 17.778V2.222A2.222 2.222 0 0 0 17.778 0H2.222A2.222 2.222 0 0 0 0 2.222v15.556C0 19.005.995 20 2.222 20z" fill="#EC4989"/>
        <path d="M13.34 14.958c-.06-.36-.379-2.115-1.163-4.27 1.93-.308 3.602.221 3.726.261a5.98 5.98 0 0 1-2.562 4.009zM10 15.978a5.955 5.955 0 0 1-3.808-1.37c.079.064.134.105.134.105s1.146-2.5 4.691-3.735c.013-.005.027-.008.04-.012a24.872 24.872 0 0 1 1.277 4.538A5.959 5.959 0 0 1 10 15.98zM4.022 10c0-.064.003-.126.005-.189.106.003 3.06.07 6.137-.852.171.335.335.677.485 1.017a4.067 4.067 0 0 0-.235.071C7.188 11.09 5.55 13.992 5.55 13.992l.003.003A5.955 5.955 0 0 1 4.022 10zm3.427-5.406c.08.107 1.186 1.605 2.22 3.444-2.87.763-5.362.733-5.519.73a5.98 5.98 0 0 1 3.3-4.174zm6.5.92c-.015.023-.867 1.32-3.124 2.164a30.374 30.374 0 0 0-2.234-3.487 5.954 5.954 0 0 1 5.357 1.324zm2.028 4.426c-.087-.019-2.11-.454-4.164-.196-.043-.102-.085-.205-.13-.307a17.967 17.967 0 0 0-.397-.868c2.361-.964 3.32-2.35 3.33-2.366a5.954 5.954 0 0 1 1.36 3.737zm.881-1.349a7.025 7.025 0 0 0-1.054-2.504 6.996 6.996 0 0 0-1.89-1.89 6.979 6.979 0 0 0-2.504-1.054 7.022 7.022 0 0 0-4.135.408 7.018 7.018 0 0 0-4.133 5.04 7.064 7.064 0 0 0 0 2.82c.092.449.23.892.409 1.314.174.415.392.816.645 1.19.25.37.538.718.854 1.035a7.014 7.014 0 0 0 3.54 1.906 6.964 6.964 0 0 0 2.82 0 6.894 6.894 0 0 0 2.504-1.052c.371-.251.72-.537 1.036-.854a6.931 6.931 0 0 0 1.499-2.226 6.99 6.99 0 0 0 .41-4.133z" fill="#FFF"/>
    </g>
</svg>
