<svg width="20" height="20" viewBox="0 0 20 20" xmlns="http://www.w3.org/2000/svg">
    <path d="M12.364 19.998c6.952-.2 7.636-1.666 7.636-9.985C20 .834 19.167 0 10 0S0 .834 0 10.013c0 8.34.688 9.792 7.69 9.987a.42.42 0 0 0 .083-.268c0-.208-.008-2.35-.012-3.086-2.531.533-3.065-1.185-3.065-1.185-.414-1.02-1.011-1.291-1.011-1.291-.826-.548.063-.537.063-.537.913.063 1.394.91 1.394.91.811 1.35 2.13.96 2.648.734.082-.57.317-.96.577-1.18-2.02-.223-4.144-.98-4.144-4.364 0-.964.355-1.752.936-2.369-.094-.224-.406-1.122.09-2.336 0 0 .764-.238 2.502.904a8.951 8.951 0 0 1 2.278-.297 8.97 8.97 0 0 1 2.278.297c1.738-1.142 2.5-.904 2.5-.904.497 1.214.185 2.112.09 2.336.584.617.936 1.405.936 2.369 0 3.392-2.127 4.139-4.155 4.357.327.272.618.812.618 1.635a1085.087 1085.087 0 0 1-.011 4.007.47.47 0 0 0 .08.266z" fill="#000" fill-rule="evenodd"/>
</svg>
