<svg width="100" height="100" viewBox="0 0 100 100" xmlns="http://www.w3.org/2000/svg" xmlns:xlink="http://www.w3.org/1999/xlink">
    <defs>
        <path id="s7u7dugs0a" d="M0 0h100v100H0z"/>
    </defs>
    <g fill="none" fill-rule="evenodd">
        <mask id="70wj21k6lb" fill="#fff">
            <use xlink:href="#s7u7dugs0a"/>
        </mask>
        <path d="M50 92.31c-11.686 0-22.28-4.765-29.944-12.451C27.972 71.92 38.7 67.415 50 67.415c11.3 0 22.028 4.505 29.944 12.442C72.28 87.544 61.686 92.31 50 92.31M34.615 44.34c0-8.484 6.9-15.386 15.385-15.386 8.484 0 15.385 6.902 15.385 15.385 0 8.482-6.9 15.385-15.385 15.385-8.484 0-15.385-6.903-15.385-15.385M50 7.692c23.328 0 42.307 18.979 42.307 42.309a42.056 42.056 0 0 1-7.431 23.912 49.932 49.932 0 0 0-20.038-11.926c5.031-4.236 8.24-10.572 8.24-17.649 0-12.726-10.352-23.077-23.078-23.077-12.726 0-23.078 10.351-23.078 23.077 0 7.078 3.209 13.413 8.241 17.65a49.883 49.883 0 0 0-20.037 11.926A42.055 42.055 0 0 1 7.693 50C7.693 26.671 26.673 7.692 50 7.692M50 0C22.43 0 0 22.43 0 50s22.43 50 50 50 50-22.43 50-50S77.57 0 50 0" fill="#4361EE" mask="url(#70wj21k6lb)"/>
    </g>
</svg>
