<svg width="199" height="358" viewBox="0 0 199 358" xmlns="http://www.w3.org/2000/svg" xmlns:xlink="http://www.w3.org/1999/xlink">
    <defs>
        <path d="M11.566.11A12.392 12.392 0 0 0 2.88 4.77a12.232 12.232 0 0 0-2.34 4.994 12.267 12.267 0 0 0 .295 6.184 12.159 12.159 0 0 0 2.502 4.428 12.18 12.18 0 0 0 1.662 1.56 12.397 12.397 0 0 0 9.56 2.43 12.249 12.249 0 0 0 4.803-1.882 12.243 12.243 0 0 0 2.878-2.657c.47-.596.882-1.238 1.234-1.913a12.123 12.123 0 0 0 1.35-4.902c.122-2.083-.3-4.192-1.218-6.069A12.3 12.3 0 0 0 16.682.778c-1.293-.46-2.68-.71-4.11-.71-.333 0-.668.015-1.006.041" id="sqryxgzuya"/>
        <path d="M29.157 4.718c-3.837 2.362-7.012 5.688-8.9 9.765-1.617 3.497-1.956 7.234-1.61 11.039.758 8.328 4.268 17.091.673 24.415-3.192 6.505-13.164 10.424-16.773 16.789-3.076 5.422-3.166 12.419.547 17.527 2.412 3.315 6.131 5.753 10.297 7.1 4.154 1.34 8.75 1.597 12.935.556a49.94 49.94 0 0 0 3.818-1.111c6.716-2.245 12.544-5.765 17.596-9.891 6.096-4.984 11.475-11.058 15.88-17.598a58.103 58.103 0 0 0 5.249-9.62c1.392-3.27 2.475-6.698 3.162-10.198.925-4.72 1.13-9.57.417-14.347-1.735-11.601-9.38-22.533-20.152-26.727A24.727 24.727 0 0 0 45.145.78a25.227 25.227 0 0 0-1.867-.07c-4.953 0-9.93 1.43-14.12 4.007" id="cb1jcg06yc"/>
        <path d="M70.372 7.795a180.346 180.346 0 0 0-12.839 5.049c-11.615 5.063-22.858 11.227-33.67 17.563-.922.54-1.839 1.08-2.753 1.623-1.008 4.554-3.141 9.388-5.689 14.336C9.731 57.411 1.966 69.02 0 79.35c2.948-4.925 6.527-10.135 10.65-15.323 22.145-27.893 59.882-55.27 98.532-35.419a73.642 73.642 0 0 1 8.09 4.856c12.387 8.533 8.516 24.727 18.406 36.444.418.495.864.978 1.34 1.45 5.685 5.663 16.03 9.965 25.034 10.268 4.98.169 9.843-.77 13.902-3.134a21.407 21.407 0 0 0 5.45-4.54c2.56-2.972 4.3-6.606 5.23-10.552 1.535-6.515.869-13.887-1.955-20.557a69.07 69.07 0 0 0-1.353-3.005c-2.639-5.49-5.73-9.95-9.38-13.795-5.053-5.32-11.178-9.46-18.676-13.524a103.624 103.624 0 0 0-11.63-5.421c-11.587-4.54-23-6.478-34.189-6.478-13.37 0-26.42 2.768-39.08 7.176" id="zo7gfjsp2e"/>
        <path d="M20.648.685c-1.005.195-2 .544-2.898 1.045-2.688 1.505-4.262 4.476-5.843 7.168a71.313 71.313 0 0 0-1.795 3.26C5.46 21.164 2.352 31.805.979 42.054.274 47.348.03 52.54.275 57.344a72.91 72.91 0 0 0 .692 6.822c1.326 9.074 4.33 19.506 8.582 28.358 3.035 6.32 6.706 11.834 10.859 15.476-5.132-9.752-10.033-20.676-12.414-31.598-.826-3.796-1.35-7.592-1.47-11.338-.395-12.142 2.239-23.011 7.297-32.965 2.665-5.242 6.004-10.228 9.93-15.014.354-.428.708-.867 1.056-1.31.968-1.24 1.883-2.53 2.58-3.856 1.117-2.125 1.671-4.347 1-6.623a8.237 8.237 0 0 0-1.117-2.299C26.054 1.213 24.223.517 22.32.517c-.556 0-1.116.058-1.67.168" id="1wd3a9rmug"/>
    </defs>
    <g fill="none" fill-rule="evenodd">
        <g transform="translate(55 65)">
            <mask id="4td7e5250b" fill="#fff">
                <use xlink:href="#sqryxgzuya"/>
            </mask>
            <path d="M11.566.11A12.392 12.392 0 0 0 2.88 4.77a12.232 12.232 0 0 0-2.34 4.994 12.267 12.267 0 0 0 .295 6.184 12.159 12.159 0 0 0 2.502 4.428 12.18 12.18 0 0 0 1.662 1.56 12.397 12.397 0 0 0 9.56 2.43 12.249 12.249 0 0 0 4.803-1.882 12.243 12.243 0 0 0 2.878-2.657c.47-.596.882-1.238 1.234-1.913a12.123 12.123 0 0 0 1.35-4.902c.122-2.083-.3-4.192-1.218-6.069A12.3 12.3 0 0 0 16.682.778c-1.293-.46-2.68-.71-4.11-.71-.333 0-.668.015-1.006.041" fill="#F297CD" mask="url(#4td7e5250b)"/>
        </g>
        <g fill="#F297CD">
            <path d="M76.355 304.375h-.02a.716.716 0 0 1-.717-.689c-.864-22.81 6.55-44.425 21.436-62.503 2.998-3.64 6.17-7.321 9.238-10.882l.016-.02c12.85-14.912 26.138-30.331 30.958-47.585 7.624-27.29-6.786-53.065-20.72-77.992l-1.047-1.873c-14.84-26.57-26.753-54.892-13.566-81.985a.72.72 0 0 1 1.323.078.703.703 0 0 1-.032.546c-12.901 26.504-1.123 54.433 13.527 80.666l1.047 1.873c14.076 25.179 28.631 51.213 20.85 79.07-4.905 17.56-18.3 33.102-31.25 48.135-3.074 3.564-6.243 7.245-9.235 10.876-14.662 17.805-21.962 39.085-21.11 61.543a.71.71 0 0 1-.191.512.71.71 0 0 1-.5.23h-.007z"/>
            <path d="M102.58 20.797a.363.363 0 0 0-.327.203c-13.117 26.948-1.238 55.172 13.553 81.66l1.049 1.873c13.97 24.988 28.415 50.827 20.752 78.257-4.841 17.33-18.155 32.78-31.03 47.723-3.096 3.593-6.26 7.266-9.248 10.894-14.833 18.011-22.218 39.543-21.357 62.267a.364.364 0 0 0 .363.348h.029a.347.347 0 0 0 .237-.117.351.351 0 0 0 .097-.257c-.855-22.547 6.473-43.91 21.192-61.782 2.983-3.622 6.145-7.293 9.204-10.845 12.962-15.041 26.33-30.554 31.211-48.037 7.745-27.717-6.776-53.687-20.818-78.804l-1.047-1.873c-14.695-26.315-26.507-54.342-13.533-80.99a.35.35 0 0 0 .014-.278.354.354 0 0 0-.34-.242zM76.37 304.728h-.035c-.579 0-1.048-.452-1.07-1.027-.868-22.9 6.572-44.595 21.516-62.742 2.994-3.635 6.16-7.309 9.222-10.865 12.86-14.926 26.123-30.316 30.922-47.493 7.584-27.15-6.79-52.86-20.69-77.723l-1.047-1.875C100.303 76.35 88.356 47.93 101.615 20.69a1.073 1.073 0 0 1 1.976.117c.095.27.077.56-.048.815-12.83 26.36-1.086 54.192 13.517 80.342l1.047 1.873c14.11 25.238 28.703 51.339 20.882 79.337-4.926 17.633-18.345 33.206-31.322 48.267-3.092 3.587-6.252 7.257-9.23 10.873-14.607 17.735-21.878 38.935-21.03 61.304a1.075 1.075 0 0 1-1.03 1.109h-.006z"/>
            <path d="M197.153 204.016h-.003a.72.72 0 0 1-.714-.726c.305-20.18-9.559-41.322-29.32-62.832-5.7-6.209-11.862-12.195-17.823-17.986l-.013-.014c-10.791-10.483-21.951-21.323-30.81-33.891-7.323-10.386-12.496-21.826-14.958-33.083-2.81-12.843-2.01-24.693 2.374-35.216a.719.719 0 0 1 .935-.387c.367.152.542.57.39.934-4.271 10.25-5.043 21.812-2.298 34.366 2.422 11.073 7.516 22.332 14.73 32.563 8.784 12.46 19.895 23.253 30.638 33.692 5.979 5.808 12.161 11.814 17.895 18.057 20.014 21.788 30.005 43.261 29.695 63.818a.72.72 0 0 1-.718.705"/>
            <path d="M106.55 20.18a.365.365 0 0 0-.337.224c-4.355 10.455-5.15 22.234-2.356 35.007 2.454 11.21 7.605 22.604 14.902 32.953 8.84 12.542 19.989 23.37 30.768 33.842 5.973 5.803 12.136 11.791 17.852 18.012 19.82 21.581 29.716 42.803 29.411 63.078-.003.2.16.363.362.367a.365.365 0 0 0 .364-.357c.309-20.465-9.65-41.855-29.602-63.575-5.722-6.23-11.897-12.229-17.867-18.03-10.77-10.462-21.893-21.267-30.695-33.753-7.24-10.268-12.352-21.574-14.784-32.693-2.762-12.624-1.982-24.259 2.315-34.576a.362.362 0 0 0-.333-.5m90.602 184.19h-.002a1.076 1.076 0 0 1-1.068-1.084c.302-20.089-9.53-41.147-29.225-62.59-5.703-6.207-11.858-12.187-17.812-17.97-10.817-10.508-21.987-21.36-30.867-33.955-7.348-10.423-12.54-21.907-15.011-33.21-2.826-12.915-2.022-24.835 2.391-35.428.227-.542.854-.8 1.398-.577.549.226.81.852.582 1.396-4.242 10.181-5.01 21.673-2.28 34.154 2.413 11.027 7.488 22.245 14.673 32.436 8.765 12.433 19.865 23.214 30.598 33.64 5.991 5.821 12.172 11.827 17.908 18.074 20.077 21.857 30.098 43.412 29.786 64.062a1.072 1.072 0 0 1-1.071 1.052"/>
        </g>
        <g transform="translate(55 127)">
            <mask id="y9iukx9hfd" fill="#fff">
                <use xlink:href="#cb1jcg06yc"/>
            </mask>
            <path d="M29.157 4.718c-3.837 2.362-7.012 5.688-8.9 9.765-1.617 3.497-1.956 7.234-1.61 11.039.758 8.328 4.268 17.091.673 24.415-3.192 6.505-13.164 10.424-16.773 16.789-3.076 5.422-3.166 12.419.547 17.527 2.412 3.315 6.131 5.753 10.297 7.1 4.154 1.34 8.75 1.597 12.935.556a49.94 49.94 0 0 0 3.818-1.111c6.716-2.245 12.544-5.765 17.596-9.891 6.096-4.984 11.475-11.058 15.88-17.598a58.103 58.103 0 0 0 5.249-9.62c1.392-3.27 2.475-6.698 3.162-10.198.925-4.72 1.13-9.57.417-14.347-1.735-11.601-9.38-22.533-20.152-26.727A24.727 24.727 0 0 0 45.145.78a25.227 25.227 0 0 0-1.867-.07c-4.953 0-9.93 1.43-14.12 4.007" fill="#FF7D00" mask="url(#y9iukx9hfd)"/>
        </g>
        <g transform="translate(0 1)">
            <mask id="7ukda2emcf" fill="#fff">
                <use xlink:href="#zo7gfjsp2e"/>
            </mask>
            <path d="M70.372 7.795a180.346 180.346 0 0 0-12.839 5.049c-11.615 5.063-22.858 11.227-33.67 17.563-.922.54-1.839 1.08-2.753 1.623-1.008 4.554-3.141 9.388-5.689 14.336C9.731 57.411 1.966 69.02 0 79.35c2.948-4.925 6.527-10.135 10.65-15.323 22.145-27.893 59.882-55.27 98.532-35.419a73.642 73.642 0 0 1 8.09 4.856c12.387 8.533 8.516 24.727 18.406 36.444.418.495.864.978 1.34 1.45 5.685 5.663 16.03 9.965 25.034 10.268 4.98.169 9.843-.77 13.902-3.134a21.407 21.407 0 0 0 5.45-4.54c2.56-2.972 4.3-6.606 5.23-10.552 1.535-6.515.869-13.887-1.955-20.557a69.07 69.07 0 0 0-1.353-3.005c-2.639-5.49-5.73-9.95-9.38-13.795-5.053-5.32-11.178-9.46-18.676-13.524a103.624 103.624 0 0 0-11.63-5.421c-11.587-4.54-23-6.478-34.189-6.478-13.37 0-26.42 2.768-39.08 7.176" fill="#F297CD" mask="url(#7ukda2emcf)"/>
        </g>
        <g transform="translate(88 249)">
            <mask id="ydkwkfytmh" fill="#fff">
                <use xlink:href="#1wd3a9rmug"/>
            </mask>
            <path d="M20.648.685c-1.005.195-2 .544-2.898 1.045-2.688 1.505-4.262 4.476-5.843 7.168a71.313 71.313 0 0 0-1.795 3.26C5.46 21.164 2.352 31.805.979 42.054.274 47.348.03 52.54.275 57.344a72.91 72.91 0 0 0 .692 6.822c1.326 9.074 4.33 19.506 8.582 28.358 3.035 6.32 6.706 11.834 10.859 15.476-5.132-9.752-10.033-20.676-12.414-31.598-.826-3.796-1.35-7.592-1.47-11.338-.395-12.142 2.239-23.011 7.297-32.965 2.665-5.242 6.004-10.228 9.93-15.014.354-.428.708-.867 1.056-1.31.968-1.24 1.883-2.53 2.58-3.856 1.117-2.125 1.671-4.347 1-6.623a8.237 8.237 0 0 0-1.117-2.299C26.054 1.213 24.223.517 22.32.517c-.556 0-1.116.058-1.67.168" fill="#F297CD" mask="url(#ydkwkfytmh)"/>
        </g>
        <path d="M180.897 65.227c-4.271-7.518-10.73-7.84-14.883-4.664-3.116 2.906-5.597 10.601 1.802 16.212-4.79.527-14.756-.587-19.26-6.493-5.524-5.07-6.574-20.608.69-27.116 6.572-6.405 18.246-6.689 24.807-1.126 7.092 4.615 9.49 14.471 6.844 23.187" fill="#FFF"/>
        <path d="M163.9 76.88s8.268.812 12.802-3.798c5.211-5.295 5.002-11.506 5.002-11.506s-2.496-4.803-5.828-7.019c-2.757-1.836-10.019-3.676-15.446 1.702-6.026 5.976-3.554 12.507-1.586 15.533 2.195 3.372 5.056 5.088 5.056 5.088" fill="#000"/>
    </g>
</svg>
