<svg width="20" height="20" viewBox="0 0 20 20" xmlns="http://www.w3.org/2000/svg">
    <g fill="none" fill-rule="evenodd">
        <path d="M20 2.5C20 1.12 18.88 0 17.5 0h-15C1.12 0 0 1.12 0 2.5v15C0 18.88 1.12 20 2.5 20h15c1.38 0 2.5-1.12 2.5-2.5v-15z" fill="#2867B2"/>
        <g fill="#FFF">
            <path d="M3.177 7.555h3.002V17H3.177z"/>
            <path d="M4.698 3C3.67 3 3 3.706 3 4.632c0 .906.65 1.632 1.658 1.632h.02c1.046 0 1.698-.726 1.698-1.632C6.356 3.706 5.724 3 4.698 3zM13.545 7.332c-1.592 0-2.306.916-2.705 1.56V7.555h-3c.04.886 0 9.445 0 9.445h3v-5.275c0-.282.02-.565.099-.766.217-.564.71-1.148 1.54-1.148 1.085 0 1.52.866 1.52 2.135V17H17v-5.417c0-2.9-1.48-4.25-3.455-4.25z" fill-rule="nonzero"/>
        </g>
    </g>
</svg>
