<svg width="20" height="20" viewBox="0 0 20 20" xmlns="http://www.w3.org/2000/svg">
    <g fill-rule="nonzero" fill="none">
        <path d="M17.5 20h-15A2.5 2.5 0 0 1 0 17.5v-15A2.5 2.5 0 0 1 2.5 0h15A2.5 2.5 0 0 1 20 2.5v15a2.5 2.5 0 0 1-2.5 2.5z" fill="#1DA1F2"/>
        <path d="M7.398 16c5.283 0 8.173-4.618 8.173-8.616 0-.13 0-.26-.005-.39A6.04 6.04 0 0 0 17 5.424a5.591 5.591 0 0 1-1.653.478 3.024 3.024 0 0 0 1.266-1.678 5.539 5.539 0 0 1-1.826.733A2.801 2.801 0 0 0 12.692 4c-1.586 0-2.874 1.358-2.874 3.03 0 .236.028.466.073.69-2.387-.124-4.504-1.334-5.922-3.165a3.156 3.156 0 0 0-.386 1.524c0 1.05.51 1.978 1.277 2.521a2.793 2.793 0 0 1-1.3-.378v.042c0 1.464.992 2.693 2.303 2.97-.241.071-.493.107-.757.107-.184 0-.364-.018-.537-.054.364 1.205 1.428 2.08 2.683 2.103A5.577 5.577 0 0 1 3 14.648 7.87 7.87 0 0 0 7.398 16" fill="#FFF"/>
    </g>
</svg>
