<svg width="20" height="20" viewBox="0 0 20 20" xmlns="http://www.w3.org/2000/svg">
    <path d="M20 10c0-5.526-4.474-10-10-10S0 4.474 0 10s4.474 10 10 10a9.88 9.88 0 0 0 5.368-1.579l.58.842c.289.448.815.71 1.341.71.29 0 .606-.078.843-.236.368-.237.631-.605.736-1.026.106-.421 0-.869-.236-1.237l-.79-1.184c.553-.106.974-.5 1.132-1.053.079-.29.079-.605 0-.868A9.707 9.707 0 0 0 20 10zM17.58 5.263h-2.974a15.808 15.808 0 0 0-1.552-3.684c1.894.684 3.473 2 4.526 3.684zm-6.684 6.158.579 2.263H6.237c-.237-1.026-.342-2.079-.395-3.158h5.08c-.106.29-.106.58-.027.895zM5.842 9.474c.026-1.08.184-2.132.421-3.158h7.5c.237 1.026.342 2.079.395 3.158H5.842zM10 1.053c.526 0 1.026.052 1.526.131.869 1.185 1.527 2.58 1.974 4.08H6.553C7.026 3.736 7.71 2.367 8.63 1.157A7.794 7.794 0 0 1 10 1.053zm-2.921.5a16.21 16.21 0 0 0-1.632 3.71H2.421c1.079-1.71 2.71-3.053 4.658-3.71zM1.842 6.316h3.342c-.21 1.026-.368 2.079-.394 3.158H1.079c.053-1.132.342-2.185.763-3.158zm-.763 4.21h3.737c.026 1.08.158 2.132.368 3.158H1.842c-.42-.974-.71-2.026-.763-3.158zm1.342 4.21h3a15.808 15.808 0 0 0 1.553 3.685c-1.921-.684-3.5-2-4.553-3.684zm8.947 4.106a7.794 7.794 0 0 1-1.368.105 9.685 9.685 0 0 1-1.526-.131c-.869-1.185-1.527-2.58-1.974-4.08h5.21l.658 2.58a11.72 11.72 0 0 1-1 1.526zm6.185-3.553-1.58.08.5.789 1.264 1.92a.542.542 0 0 1-.185.79c-.052.027-.079.053-.131.053h-.026c-.027 0-.08.026-.106.026h-.026c-.053 0-.079 0-.132-.026h-.026c-.026 0-.052-.026-.079-.026 0 0-.026 0-.026-.027-.026-.026-.053-.026-.079-.052l-.026-.026a.364.364 0 0 1-.08-.106l-.578-.868L15 15.974l-.605 1.526a.577.577 0 0 1-.079.132l-.026.026c-.027.026-.053.053-.08.053-.025 0-.025.026-.052.026-.026 0-.053.026-.079.026h-.263c-.026 0-.053-.026-.079-.052 0 0-.026 0-.026-.027-.026-.026-.08-.052-.105-.105l-.08-.158-.447-1.632-.105-.368-1.08-4.263c0-.053-.025-.08 0-.132V11c0-.026 0-.053.027-.079v-.026c.026-.026.026-.053.053-.105l.079-.08s.026 0 .026-.026c.026-.026.053-.026.079-.026h.026c.026 0 .079-.026.105-.026h.158c.053.026.08.026.132.053l1.473 1.052.974.71 1.737 1.238 1.026.736c.369.263.211.842-.236.868zm.71-1.842-3.079-2.21c.026-.237.026-.474.026-.71h3.737a9.676 9.676 0 0 1-.684 2.92zM15.21 9.474a17.846 17.846 0 0 0-.368-3.158h3.316c.447.973.71 2.026.79 3.158H15.21z" fill="#0D1822" fill-rule="nonzero"/>
</svg>
